<?xml version="1.0" encoding="utf-8"?>
<!-- Generator: Adobe Illustrator 24.0.3, SVG Export Plug-In . SVG Version: 6.00 Build 0)  -->
<svg version="1.1" id="Layer_1" xmlns="http://www.w3.org/2000/svg" xmlns:xlink="http://www.w3.org/1999/xlink" x="0px" y="0px"
	 viewBox="0 0 566.93 283.46" style="enable-background:new 0 0 566.93 283.46;" xml:space="preserve">
<style type="text/css">
	.st0{fill:none;stroke:#333232;stroke-width:0.25;stroke-miterlimit:10;}
	.st1{fill:#2E2E8A;}
	.st2{fill:#FFFFFF;}
	.st3{fill:#333232;}
</style>
<line class="st0" x1="42.52" y1="14.17" x2="42.52" y2="269.29"/>
<line class="st0" x1="184.25" y1="14.17" x2="184.25" y2="269.29"/>
<line class="st0" x1="325.98" y1="14.17" x2="325.98" y2="269.29"/>
<line class="st0" x1="467.72" y1="14.17" x2="467.72" y2="269.29"/>
<rect x="42.52" y="42.52" class="st1" width="170.08" height="28.35"/>
<rect x="42.52" y="99.21" class="st1" width="255.12" height="28.35"/>
<rect x="42.52" y="155.91" class="st1" width="170.08" height="28.35"/>
<rect x="42.52" y="212.6" class="st1" width="425.2" height="28.35"/>
<g>
	<path class="st2" d="M200.12,52.4l-1.62,2.4c1.56-0.18,2.82,1.08,2.82,2.58s-1.14,2.64-2.76,2.64s-2.76-1.14-2.76-2.64
		c0-1.02,0.72-1.92,0.72-1.92c0.67-1.02,2.1-3.06,2.1-3.06H200.12z M199.88,57.37c0-0.78-0.6-1.38-1.32-1.38s-1.32,0.6-1.32,1.38
		s0.6,1.38,1.32,1.38S199.88,58.15,199.88,57.37z"/>
</g>
<g>
	<path class="st3" d="M8.56,58.93l2.76-2.88c0,0,0.84-0.78,0.84-1.44c0-0.6-0.36-0.96-1.08-0.96c-0.72,0-1.14,0.42-1.14,1.08H8.5
		c0-1.38,1.02-2.4,2.58-2.4c1.62,0,2.58,0.96,2.58,2.22c0,1.14-1.38,2.34-1.38,2.34l-1.62,1.68h2.94v1.38H8.56V58.93z"/>
	<path class="st3" d="M20.86,56.17c0,2.4-1.44,3.84-3.12,3.84s-3.12-1.44-3.12-3.84c0-2.4,1.44-3.84,3.12-3.84
		S20.86,53.77,20.86,56.17z M16.06,56.17c0,1.62,0.84,2.46,1.68,2.46c0.84,0,1.68-0.84,1.68-2.46s-0.84-2.46-1.68-2.46
		C16.9,53.71,16.06,54.55,16.06,56.17z"/>
	<path class="st3" d="M23.14,54.25l-0.9,0.6l-0.72-1.08l1.98-1.38h1.08v7.56h-1.44V54.25z"/>
	<path class="st3" d="M30.04,52.4l-1.62,2.4c1.56-0.18,2.82,1.08,2.82,2.58s-1.14,2.64-2.76,2.64s-2.76-1.14-2.76-2.64
		c0-1.02,0.72-1.92,0.72-1.92c0.67-1.02,2.1-3.06,2.1-3.06H30.04z M29.8,57.37c0-0.78-0.6-1.38-1.32-1.38s-1.32,0.6-1.32,1.38
		s0.6,1.38,1.32,1.38S29.8,58.15,29.8,57.37z"/>
</g>
<g>
	<path class="st3" d="M9.28,115.62l2.76-2.88c0,0,0.84-0.78,0.84-1.44c0-0.6-0.36-0.96-1.08-0.96c-0.72,0-1.14,0.42-1.14,1.08H9.22
		c0-1.38,1.02-2.4,2.58-2.4c1.62,0,2.58,0.96,2.58,2.22c0,1.14-1.38,2.34-1.38,2.34l-1.62,1.68h2.94v1.38H9.28V115.62z"/>
	<path class="st3" d="M21.58,112.87c0,2.4-1.44,3.84-3.12,3.84c-1.68,0-3.12-1.44-3.12-3.84c0-2.4,1.44-3.84,3.12-3.84
		C20.14,109.03,21.58,110.47,21.58,112.87z M16.78,112.87c0,1.62,0.84,2.46,1.68,2.46c0.84,0,1.68-0.84,1.68-2.46
		s-0.84-2.46-1.68-2.46C17.62,110.41,16.78,111.25,16.78,112.87z"/>
	<path class="st3" d="M23.86,110.95l-0.9,0.6l-0.72-1.08l1.98-1.38h1.08v7.56h-1.44V110.95z"/>
	<path class="st3" d="M29.68,110.47h-3.24v-1.38h4.86v1.08l-3,6.48h-1.5L29.68,110.47z"/>
</g>
<g>
	<path class="st3" d="M8.68,172.32l2.76-2.88c0,0,0.84-0.78,0.84-1.44c0-0.6-0.36-0.96-1.08-0.96c-0.72,0-1.14,0.42-1.14,1.08H8.62
		c0-1.38,1.02-2.4,2.58-2.4c1.62,0,2.58,0.96,2.58,2.22c0,1.14-1.38,2.34-1.38,2.34l-1.62,1.68h2.94v1.38H8.68V172.32z"/>
	<path class="st3" d="M20.98,169.56c0,2.4-1.44,3.84-3.12,3.84s-3.12-1.44-3.12-3.84c0-2.4,1.44-3.84,3.12-3.84
		S20.98,167.16,20.98,169.56z M16.18,169.56c0,1.62,0.84,2.46,1.68,2.46c0.84,0,1.68-0.84,1.68-2.46s-0.84-2.46-1.68-2.46
		C17.02,167.1,16.18,167.94,16.18,169.56z"/>
	<path class="st3" d="M23.26,167.64l-0.9,0.6l-0.72-1.08l1.98-1.38h1.08v7.56h-1.44V167.64z"/>
	<path class="st3" d="M27.04,169.26c0,0-0.9-0.48-0.9-1.5c0-1.08,0.96-2.04,2.4-2.04c1.44,0,2.4,0.96,2.4,2.04
		c0,1.02-0.9,1.5-0.9,1.5s1.2,0.48,1.2,1.86c0,1.2-1.08,2.28-2.7,2.28c-1.62,0-2.7-1.08-2.7-2.28
		C25.84,169.74,27.04,169.26,27.04,169.26z M28.54,172.14c0.78,0,1.26-0.48,1.26-1.08s-0.48-1.08-1.26-1.08
		c-0.78,0-1.26,0.48-1.26,1.08S27.76,172.14,28.54,172.14z M28.54,168.78c0.6,0,1.02-0.42,1.02-0.9c0-0.48-0.42-0.9-1.02-0.9
		c-0.6,0-1.02,0.42-1.02,0.9C27.52,168.36,27.94,168.78,28.54,168.78z"/>
</g>
<g>
	<path class="st3" d="M8.56,229.01l2.76-2.88c0,0,0.84-0.78,0.84-1.44c0-0.6-0.36-0.96-1.08-0.96c-0.72,0-1.14,0.42-1.14,1.08H8.5
		c0-1.38,1.02-2.4,2.58-2.4c1.62,0,2.58,0.96,2.58,2.22c0,1.14-1.38,2.34-1.38,2.34l-1.62,1.68h2.94v1.38H8.56V229.01z"/>
	<path class="st3" d="M20.86,226.25c0,2.4-1.44,3.84-3.12,3.84s-3.12-1.44-3.12-3.84c0-2.4,1.44-3.84,3.12-3.84
		S20.86,223.85,20.86,226.25z M16.06,226.25c0,1.62,0.84,2.46,1.68,2.46c0.84,0,1.68-0.84,1.68-2.46s-0.84-2.46-1.68-2.46
		C16.9,223.79,16.06,224.63,16.06,226.25z"/>
	<path class="st3" d="M23.14,224.33l-0.9,0.6l-0.72-1.08l1.98-1.38h1.08v7.56h-1.44V224.33z"/>
	<path class="st3" d="M28.54,227.63c-1.56,0.18-2.82-1.08-2.82-2.58c0-1.5,1.14-2.64,2.76-2.64s2.76,1.14,2.76,2.64
		c0,1.02-0.72,1.92-0.72,1.92c-0.67,1.02-2.1,3.06-2.1,3.06h-1.5L28.54,227.63z M29.8,225.05c0-0.78-0.6-1.38-1.32-1.38
		s-1.32,0.6-1.32,1.38c0,0.78,0.6,1.38,1.32,1.38S29.8,225.83,29.8,225.05z"/>
</g>
<g>
	<path class="st2" d="M283.66,114.25c-1.56,0.18-2.82-1.08-2.82-2.58c0-1.5,1.14-2.64,2.76-2.64s2.76,1.14,2.76,2.64
		c0,1.02-0.72,1.92-0.72,1.92c-0.67,1.02-2.1,3.06-2.1,3.06h-1.5L283.66,114.25z M284.91,111.67c0-0.78-0.6-1.38-1.32-1.38
		s-1.32,0.6-1.32,1.38c0,0.78,0.6,1.38,1.32,1.38S284.91,112.45,284.91,111.67z"/>
</g>
<g>
	<path class="st2" d="M200.12,165.78l-1.62,2.4c1.56-0.18,2.82,1.08,2.82,2.58s-1.14,2.64-2.76,2.64s-2.76-1.14-2.76-2.64
		c0-1.02,0.72-1.92,0.72-1.92c0.67-1.02,2.1-3.06,2.1-3.06H200.12z M199.88,170.76c0-0.78-0.6-1.38-1.32-1.38s-1.32,0.6-1.32,1.38
		s0.6,1.38,1.32,1.38S199.88,171.54,199.88,170.76z"/>
</g>
<g>
	<path class="st2" d="M448.45,224.33l-0.9,0.6l-0.72-1.08l1.98-1.38h1.08v7.56h-1.44V224.33z"/>
	<path class="st2" d="M452.47,227.93c0.06,0.36,0.54,0.84,1.2,0.84c0.78,0,1.32-0.54,1.32-1.32c0-0.78-0.54-1.32-1.32-1.32
		c-0.86,0-1.2,0.78-1.2,0.78h-1.26l0.48-4.44h4.2v1.38h-3l-0.18,1.38c0,0,0.54-0.36,1.14-0.36c1.5,0,2.58,1.08,2.58,2.58
		s-1.14,2.64-2.76,2.64c-1.5,0-2.52-1.02-2.64-2.16H452.47z"/>
</g>
</svg>
